HIERARCHY
ROOT Hips
{
	OFFSET 0.000000 0.000000 0.000000
	CHANNELS 6 Xposition Yposition Zposition Zrotation Yrotation Xrotation 
	JOINT LHipJoint
	{
		OFFSET 0.000000 0.000000 0.000000
		CHANNELS 3 Zrotation Yrotation Xrotation
		JOINT LeftUpLeg
		{
			OFFSET 1.363060 -1.794630 0.839290
			CHANNELS 3 Zrotation Yrotation Xrotation
			JOINT LeftLeg
			{
				OFFSET 2.448110 -6.726130 0.000000
				CHANNELS 3 Zrotation Yrotation Xrotation
				JOINT LeftFoot
				{
					OFFSET 2.562200 -7.039590 0.000000
					CHANNELS 3 Zrotation Yrotation Xrotation
					JOINT LeftToeBase
					{
						OFFSET 0.157640 -0.433110 2.322550
						CHANNELS 3 Zrotation Yrotation Xrotation
						End Site
						{
							OFFSET 0.000000 0.000000 0.000000
						}
					}
				}
			}
		}
	}
	JOINT RHipJoint
	{
		OFFSET 0.000000 0.000000 0.000000
		CHANNELS 3 Zrotation Yrotation Xrotation
		JOINT RightUpLeg
		{
			OFFSET -1.305520 -1.794630 0.839290
			CHANNELS 3 Zrotation Yrotation Xrotation
			JOINT RightLeg
			{
				OFFSET -2.542530 -6.985550 0.000000
				CHANNELS 3 Zrotation Yrotation Xrotation
				JOINT RightFoot
				{
					OFFSET -2.568260 -7.056230 0.000000
					CHANNELS 3 Zrotation Yrotation Xrotation
					JOINT RightToeBase
					{
						OFFSET -0.164730 -0.452590 2.363150
						CHANNELS 3 Zrotation Yrotation Xrotation
						End Site
						{
							OFFSET 0.000000 0.000000 0.000000
						}
					}
				}
			}
		}
	}
	JOINT LowerBack
	{
		OFFSET 0.000000 0.000000 0.000000
		CHANNELS 3 Zrotation Yrotation Xrotation
		JOINT Spine
		{
			OFFSET 0.028270 2.035590 -0.193380
			CHANNELS 3 Zrotation Yrotation Xrotation
			JOINT Spine1
			{
				OFFSET 0.056720 2.048850 -0.042750
				CHANNELS 3 Zrotation Yrotation Xrotation
				JOINT Neck
				{
					OFFSET 0.000000 0.000000 0.000000
					CHANNELS 3 Zrotation Yrotation Xrotation
					JOINT Neck1
					{
						OFFSET -0.054170 1.746240 0.172020
						CHANNELS 3 Zrotation Yrotation Xrotation
						JOINT Head
						{
							OFFSET 0.104070 1.761360 -0.123970
							CHANNELS 3 Zrotation Yrotation Xrotation
							End Site
							{
								OFFSET 0.000000 0.000000 0.000000
							}
						}
					}
				}
				JOINT LeftShoulder
				{
					OFFSET 0.000000 0.000000 0.000000
					CHANNELS 3 Zrotation Yrotation Xrotation
					JOINT LeftArm
					{
						OFFSET 3.362410 1.200890 -0.311210
						CHANNELS 3 Zrotation Yrotation Xrotation
						JOINT LeftForeArm
						{
							OFFSET 4.983000 -0.000000 -0.000000
							CHANNELS 3 Zrotation Yrotation Xrotation
							JOINT LeftHand
							{
								OFFSET 3.483560 -0.000000 -0.000000
								CHANNELS 3 Zrotation Yrotation Xrotation
								JOINT LeftFingerBase
								{
									OFFSET 0.000000 0.000000 0.000000
									CHANNELS 3 Zrotation Yrotation Xrotation
									JOINT LeftHandIndex1
									{
										OFFSET 0.715260 -0.000000 -0.000000
										CHANNELS 3 Zrotation Yrotation Xrotation
										End Site
										{
											OFFSET 0.000000 0.000000 0.000000
										}
									}
								}
								JOINT LThumb
								{
									OFFSET 0.000000 0.000000 0.000000
									CHANNELS 3 Zrotation Yrotation Xrotation
									End Site
									{
										OFFSET 0.000000 0.000000 0.000000
									}
								}
							}
						}
					}
				}
				JOINT RightShoulder
				{
					OFFSET 0.000000 0.000000 0.000000
					CHANNELS 3 Zrotation Yrotation Xrotation
					JOINT RightArm
					{
						OFFSET -3.136600 1.374050 -0.404650
						CHANNELS 3 Zrotation Yrotation Xrotation
						JOINT RightForeArm
						{
							OFFSET -5.241900 -0.000000 -0.000000
							CHANNELS 3 Zrotation Yrotation Xrotation
							JOINT RightHand
							{
								OFFSET -3.444170 -0.000000 -0.000000
								CHANNELS 3 Zrotation Yrotation Xrotation
								JOINT RightFingerBase
								{
									OFFSET 0.000000 0.000000 0.000000
									CHANNELS 3 Zrotation Yrotation Xrotation
									JOINT RightHandIndex1
									{
										OFFSET -0.622530 -0.000000 -0.000000
										CHANNELS 3 Zrotation Yrotation Xrotation
										End Site
										{
											OFFSET 0.000000 0.000000 0.000000
										}
									}
								}
								JOINT RThumb
								{
									OFFSET 0.000000 0.000000 0.000000
									CHANNELS 3 Zrotation Yrotation Xrotation
									End Site
									{
										OFFSET 0.000000 0.000000 0.000000
									}
								}
							}
						}
					}
				}
			}
		}
	}
}
MOTION
Frames: 4
Frame Time: 0.008333
2.169436 16.967555 -2.732357 -176.634001 53.314527 -157.375989 -10.135070 -0.811386 -1.454378 -18.429637 9.160425 -43.886816 -3.325592 0.060686 14.417963 1.228784 6.831247 -0.944447 1.262900 0.000001 -5.265100 9.434837 -2.344739 -4.477964 5.382034 -14.692297 -10.710504 2.707448 -2.029746 27.037063 0.906587 9.689809 1.256275 1.154499 0.000000 -75.676499 -2.590537 1.471340 9.033094 -1.816179 1.645821 -1.069909 -7.377225 1.586188 1.168271 11.911824 6.486080 4.691967 -4.547481 -0.403555 2.762776 0.000000 0.000000 0.000000 -7.825175 2.073232 1.221250 -65.656632 -3.984165 10.902037 -3.011601 -24.520831 -0.001016 2.640547 1.374483 0.032565 -0.057465 0.003651 -0.000000 0.000000 0.000000 0.000000 0.000000 0.000000 0.000000 21.087790 5.213405 -0.217780 62.440878 27.168658 0.930955 3.145161 25.210266 0.011880 4.590440 8.357472 0.338824 0.019637 -0.105914 0.000000 0.000000 0.000000 0.000000 0.000000 0.000000 0.000000 
2.253065 16.969637 -2.825371 -177.126911 53.381920 -157.848907 -10.042523 -0.703983 -1.496818 -18.757813 9.034837 -43.787396 -3.303863 0.160528 15.517438 1.264377 7.052916 -1.053971 1.275100 -0.000000 -5.396900 9.717271 -2.298832 -4.526801 4.330618 -15.352632 -11.469794 2.556585 -2.245501 28.899532 0.973469 10.978352 2.580940 1.549699 -0.000000 -77.768400 -3.245407 1.418237 9.142909 -1.966334 1.605941 -1.068476 -7.453361 1.547785 1.109395 12.066572 6.424225 4.737653 -4.584776 -0.405714 2.767800 0.000000 0.000000 0.000000 -7.619747 1.777218 1.254160 -65.478824 -4.193893 10.856795 -3.053536 -24.149315 -0.001116 2.646621 1.428843 0.033865 -0.057992 0.004310 -0.000000 0.000000 0.000000 0.000000 0.000000 0.000000 0.000000 21.399864 5.076563 -0.267095 63.318951 26.323157 0.621709 3.107939 24.984130 0.011517 4.558736 8.426651 0.339223 0.018013 -0.104845 0.000000 0.000000 0.000000 0.000000 0.000000 0.000000 0.000000 
2.332675 16.975214 -2.918103 -177.624203 53.439994 -158.313559 -9.954319 -0.615971 -1.534579 -19.046655 8.825824 -43.589561 -3.278739 0.233649 16.495650 1.317446 7.318190 -1.420144 1.255200 -0.000000 -5.615900 9.974074 -2.236883 -4.567957 3.302188 -15.870396 -12.258951 2.386887 -2.458288 30.786944 1.013161 12.260809 4.095365 2.043600 0.000000 -79.655000 -3.853945 1.369741 9.257566 -2.103235 1.569082 -1.063757 -7.509870 1.512258 1.046380 12.140829 6.394411 4.810344 -4.610084 -0.407416 2.779823 0.000000 0.000000 0.000000 -7.445388 1.426673 1.285905 -65.309908 -4.451235 10.815782 -3.094582 -23.745877 -0.001250 2.634098 1.508286 0.035565 -0.058418 0.005250 -0.000000 0.000000 0.000000 0.000000 0.000000 0.000000 0.000000 21.576443 4.970135 -0.320292 64.205718 25.443615 0.201034 3.064396 24.731569 0.011122 4.468658 8.508618 0.335819 0.016712 -0.104087 0.000000 0.000000 0.000000 0.000000 0.000000 0.000000 0.000000 
2.407889 16.983600 -3.010952 -178.106240 53.498151 -158.762150 -9.873692 -0.547393 -1.574629 -19.300417 8.573680 -43.290904 -3.252628 0.281526 17.334534 1.386050 7.623444 -1.992832 1.205400 -0.000000 -5.907201 10.201351 -2.160782 -4.599548 2.311775 -16.234620 -13.059764 2.201285 -2.664480 32.682464 1.023878 13.519501 5.772484 2.643199 0.000000 -81.225199 -4.404815 1.327398 9.378910 -2.225187 1.536974 -1.052453 -7.549332 1.481756 0.991373 12.128758 6.371767 4.898253 -4.628254 -0.408789 2.795405 0.000000 0.000000 0.000000 -7.304711 1.061012 1.312156 -65.154070 -4.792302 10.796014 -3.134971 -23.305707 -0.001419 2.601322 1.610940 0.037565 -0.058796 0.006502 -0.000000 0.000000 0.000000 0.000000 0.000000 0.000000 0.000000 21.635221 4.867325 -0.377237 65.079345 24.584976 -0.248295 3.020458 24.430162 0.010722 4.328419 8.598743 0.328616 0.015952 -0.103368 0.000000 0.000000 0.000000 0.000000 0.000000 0.000000 0.000000 
